<svg width="20" height="21" viewBox="0 0 20 21" fill="none" xmlns="http://www.w3.org/2000/svg">
<path fill-rule="evenodd" clip-rule="evenodd" d="M2.8146 4.73518C2.5 5.1834 2.5 6.51573 2.5 9.18038V10.4926C2.5 15.191 6.03247 17.4711 8.2488 18.4392C8.85001 18.7019 9.15062 18.8332 10 18.8332C10.8494 18.8332 11.15 18.7019 11.7512 18.4392C13.9675 17.4711 17.5 15.191 17.5 10.4926V9.18038C17.5 6.51573 17.5 5.1834 17.1854 4.73518C16.8708 4.28695 15.6181 3.85813 13.1126 3.0005L12.6352 2.8371C11.3292 2.39004 10.6762 2.1665 10 2.1665C9.32384 2.1665 8.67082 2.39004 7.36477 2.8371L6.88743 3.0005C4.38194 3.85813 3.12919 4.28695 2.8146 4.73518ZM12.5495 9.24943C12.7794 8.99195 12.7571 8.59685 12.4996 8.36696C12.2421 8.13707 11.847 8.15943 11.6171 8.41691L9.10714 11.2281L8.38288 10.4169C8.15298 10.1594 7.75789 10.1371 7.50041 10.367C7.24293 10.5969 7.22056 10.9919 7.45046 11.2494L8.64093 12.5828C8.75951 12.7156 8.9291 12.7915 9.10714 12.7915C9.28518 12.7915 9.45478 12.7156 9.57335 12.5828L12.5495 9.24943Z" fill="#FF6722"/>
</svg>
