<svg width="20" height="21" viewBox="0 0 20 21" fill="none" xmlns="http://www.w3.org/2000/svg">
<path d="M11.666 5.5C14.0228 5.5 15.2014 5.50022 15.9336 6.23242C16.6657 6.96467 16.666 8.14315 16.666 10.5V11.3799C16.666 13.3843 16.6657 14.3869 16.168 15.1924C15.6702 15.9978 14.7732 16.4464 12.9805 17.3428C11.5177 18.0742 10.7858 18.4404 9.99902 18.4404C9.2122 18.4404 8.48033 18.0742 7.01758 17.3428C5.22486 16.4464 4.32789 15.9978 3.83008 15.1924C3.33235 14.3869 3.33203 13.3843 3.33203 11.3799V10.5C3.33203 8.14315 3.33238 6.96467 4.06445 6.23242C4.79665 5.50022 5.97523 5.5 8.33203 5.5H11.666ZM9.99902 8.83301C9.76231 8.83301 9.60377 9.11748 9.28711 9.68555L9.20508 9.83301C9.11532 9.99403 9.07006 10.0747 9 10.1279C8.92993 10.181 8.84229 10.2008 8.66797 10.2402L8.50879 10.2764C7.894 10.4155 7.58681 10.4855 7.51367 10.7207C7.44084 10.9557 7.64966 11.2008 8.06836 11.6904L8.17773 11.8174C8.29683 11.9566 8.35602 12.0271 8.38281 12.1133C8.40944 12.1993 8.40078 12.2921 8.38281 12.4775L8.36621 12.6465C8.30286 13.3002 8.2717 13.6279 8.46289 13.7734C8.65437 13.9183 8.94238 13.7853 9.51758 13.5205L9.66699 13.4521C9.83045 13.3769 9.91235 13.3398 9.99902 13.3398C10.0857 13.3398 10.1676 13.3769 10.3311 13.4521L10.4795 13.5205C11.0549 13.7854 11.3436 13.9184 11.5352 13.7734C11.7263 13.6279 11.6952 13.3002 11.6318 12.6465L11.6152 12.4775C11.5973 12.2921 11.5886 12.1993 11.6152 12.1133C11.642 12.0271 11.7012 11.9566 11.8203 11.8174L11.9297 11.6904C12.3484 11.2008 12.5572 10.9557 12.4844 10.7207C12.4112 10.4855 12.1041 10.4155 11.4893 10.2764L11.3301 10.2402C11.1556 10.2008 11.0672 10.1811 10.9971 10.1279C10.9272 10.0747 10.8817 9.99401 10.792 9.83301L10.7109 9.68555C10.3943 9.11748 10.2357 8.83301 9.99902 8.83301ZM10.832 2.16699C12.4033 2.16699 13.1896 2.16716 13.6777 2.65527C14.0223 3.00007 14.1236 3.49315 14.1533 4.30664C13.4694 4.24924 12.6606 4.24995 11.748 4.25H8.25C7.33747 4.24995 6.52869 4.24924 5.84473 4.30664C5.87445 3.49318 5.97579 3.00007 6.32031 2.65527C6.80846 2.16713 7.59472 2.16699 9.16602 2.16699H10.832Z" fill="#FF6722"/>
</svg>
