<svg width="20" height="21" viewBox="0 0 20 21" fill="none" xmlns="http://www.w3.org/2000/svg">
<path d="M7.84606 18.8332C7.78262 18.8332 7.71835 18.8202 7.65698 18.7932C7.4422 18.6985 7.32603 18.459 7.38242 18.2271L8.99862 11.5807H4.64395C4.48633 11.5807 4.33884 11.5013 4.24972 11.3685C4.1606 11.2356 4.14135 11.0664 4.1982 10.9162L7.39281 2.47864C7.46402 2.29053 7.64111 2.1665 7.83857 2.1665H12.2344C12.3959 2.1665 12.5465 2.24984 12.6348 2.38805C12.723 2.52627 12.7369 2.70065 12.6718 2.85166L10.7801 7.23836H14.5214C14.6962 7.23836 14.857 7.33585 14.9408 7.49256C15.0246 7.64926 15.018 7.84021 14.9235 7.99047L8.24842 18.6087C8.15815 18.7523 8.00467 18.8332 7.84606 18.8332Z" fill="#FF6722"/>
</svg>
