<svg width="20" height="21" viewBox="0 0 20 21" fill="none" xmlns="http://www.w3.org/2000/svg">
<path d="M17.4791 10.6542L16.8911 14.054C16.4142 16.8118 13.9383 18.8332 11.0373 18.8332H7.16341C6.44359 18.8332 5.84334 18.282 5.78127 17.5641L5.10446 9.73684C5.06599 9.29197 5.24353 8.85571 5.58157 8.56441L6.78052 7.53125C7.3368 7.05189 7.87195 6.53331 8.21808 5.88535C8.45497 5.44188 8.6387 4.97253 8.76483 4.48629L9.16126 2.95808C9.23803 2.66212 9.44516 2.41326 9.72829 2.27683C9.98551 2.15288 10.2833 2.13249 10.5561 2.22013L10.6769 2.25894C11.1284 2.40396 11.4716 2.7612 11.587 3.20611C11.7263 3.74317 11.752 4.30346 11.6622 4.85102L11.11 8.22149C11.0408 8.64424 11.3666 9.02834 11.7945 9.02834H16.1121C16.9729 9.02834 17.6259 9.80501 17.4791 10.6542Z" fill="#FF6722"/>
<path d="M3.12268 8.97465C3.09384 8.6412 2.80744 8.38964 2.47305 8.40407C2.13867 8.4185 1.875 8.6938 1.875 9.02849V18.4273C1.875 18.996 2.33574 19.4583 2.90559 19.4583C3.51057 19.4583 3.98435 18.9399 3.93234 18.3384L3.12268 8.97465Z" fill="#FF6722"/>
</svg>
